<svg width="17" height="17" viewBox="0 0 17 17" fill="none" xmlns="http://www.w3.org/2000/svg">
<path d="M5 13.3333C4.08333 13.3333 3.34167 14.0833 3.34167 15C3.34167 15.9167 4.08333 16.6667 5 16.6667C5.91667 16.6667 6.66667 15.9167 6.66667 15C6.66667 14.0833 5.91667 13.3333 5 13.3333ZM13.3333 13.3333C12.4167 13.3333 11.675 14.0833 11.675 15C11.675 15.9167 12.4167 16.6667 13.3333 16.6667C14.25 16.6667 15 15.9167 15 15C15 14.0833 14.25 13.3333 13.3333 13.3333ZM12.125 9.16667C12.75 9.16667 13.3 8.825 13.5833 8.30833L16.5667 2.9C16.875 2.35 16.475 1.66667 15.8417 1.66667H3.50833L2.725 0H0V1.66667H1.66667L4.66667 7.99167L3.54167 10.025C2.93333 11.1417 3.73333 12.5 5 12.5H15V10.8333H5L5.91667 9.16667H12.125ZM4.3 3.33333H14.425L12.125 7.5H6.275L4.3 3.33333Z" fill="#323232"/>
</svg>
